<svg width="176" height="54" viewBox="0 0 176 54" fill="none" xmlns="http://www.w3.org/2000/svg">
<path d="M52.5557 26.9575C52.5557 12.7233 41.0121 1.17966 26.7779 1.17966C12.5437 1.17966 1 12.7233 1 26.9575C1 41.1917 12.5437 52.7354 26.7779 52.7354C41.0121 52.7354 52.5557 41.1917 52.5557 26.9575Z" fill="url(#paint0_radial_2_165)" stroke="#121833" stroke-miterlimit="10"/>
<path opacity="0.5" d="M48.9043 13.7352C48.0203 12.9793 47.3541 12.5309 47.3541 12.5309C46.5853 11.3522 44.8045 11.5571 44.2023 11.365C43.6001 11.1856 42.6264 10.1734 41.089 9.34066C39.5515 8.50788 39.039 9.58409 38.2703 10.9422C37.5016 12.3002 39.5131 12.723 39.244 14.0811C38.975 15.4392 36.4638 14.8627 36.2076 15.2214C35.9641 15.5801 36.4125 16.4129 36.6175 17.4379C36.8353 18.4628 35.5541 18.45 35.1698 19.3341C34.7854 20.2181 35.2851 21.0893 35.4516 21.8324C35.6182 22.5755 34.1576 24.5486 32.9149 26.8035C31.6721 29.0584 32.6971 31.5952 34.1064 33.0045C35.5157 34.4139 36.5919 33.4273 38.3216 33.2736C40.0384 33.1199 40.1409 34.9904 40.7046 35.836C41.2683 36.6816 41.3196 38.8597 41.1402 40.1409C40.9608 41.4221 40.7302 44.3048 42.3317 44.8301C43.9332 45.3426 47.1619 39.6028 47.5975 38.7059C48.0331 37.8091 47.6615 36.4894 47.7 35.7591C47.7384 35.0289 48.9556 33.2736 49.1862 32.6074C49.4168 31.9411 49.1862 30.6471 49.2246 30.1218C49.2631 29.5965 49.9805 29.0584 50.3521 28.5588C50.7108 28.0591 49.9165 26.3423 50.9542 26.2013C51.518 26.1245 52.1073 27.0213 52.5301 27.8541C52.5429 27.5466 52.5429 27.2391 52.5429 26.9316C52.5558 22.1271 51.2233 17.6044 48.9043 13.7352Z" fill="#61A60E"/>
<path opacity="0.5" d="M25.9707 33.517C25.0611 32.9661 21.0381 28.341 17.771 28.8534C14.5039 29.3659 15.1189 32.2615 14.8114 33.3889C14.5039 34.5164 14.1452 36.5919 15.7851 38.2319C17.4251 39.8846 18.4372 40.8199 18.3091 42.9851C18.181 45.1504 18.04 49.1478 19.2188 49.6602C20.4103 50.1727 20.4359 47.6231 22.1399 46.675C23.8439 45.7269 24.8817 43.8051 25.7017 42.9211C26.5216 42.0371 28.7253 40.8199 28.9047 39.5387C29.084 38.2575 30.3653 37.0404 30.0321 35.8232C29.7759 34.7854 26.8804 34.068 25.9707 33.517Z" fill="#61A60E"/>
<path opacity="0.5" d="M4.92049 15.1958C5.6764 15.7339 5.49703 17.8607 5.18954 19.3853C4.89486 20.91 4.39519 23.0624 5.3561 25.4326C6.30419 27.8028 8.46943 30.7881 9.76345 30.25C10.2759 30.0322 8.34131 25.5095 10.4169 25.0483C12.4796 24.587 13.9274 24.6639 15.2598 22.5115C16.5923 20.359 18.2322 18.2963 19.2828 17.5276C20.3462 16.7717 22.473 15.0292 22.1655 13.5815C21.8708 12.1337 20.7178 10.9934 19.6287 10.8653C18.5397 10.7244 15.4904 14.3246 14.3245 13.479C13.1586 12.6334 13.3765 10.9806 14.7858 10.1863C16.1951 9.39191 16.9638 8.93068 17.3226 8.44382C17.6813 7.95696 18.796 7.12418 19.3853 7.40604C20.4231 7.8929 19.1675 9.60972 19.8465 9.96846C20.5256 10.3272 22.2424 8.98193 21.6402 7.86728C21.0381 6.75263 18.8856 5.7661 18.2066 5.95828C17.5276 6.15046 17.1944 7.64947 16.7076 7.86728C16.2207 8.08508 15.1573 8.05946 14.6448 8.25164C14.1324 8.44382 13.9402 8.90505 13.3893 8.68725C12.8383 8.46944 13.069 7.18824 11.7493 7.6751C10.4425 8.16196 10.6603 9.00755 9.22534 9.9044C7.96976 10.6859 7.35478 11.9671 5.70202 12.044C4.53612 13.684 3.5496 15.4776 2.79369 17.3738C2.85775 17.3482 2.92181 17.297 2.98587 17.2457C3.65209 16.7204 4.16458 14.6577 4.92049 15.1958Z" fill="#61A60E"/>
<path opacity="0.6" d="M47.0978 39.2696C49.0196 37.7322 50.5058 36.0154 51.518 34.1704C51.7102 33.5042 51.8767 32.8252 52.0176 32.1333C51.1849 34.4651 49.609 36.6047 47.4694 38.4497C49.0324 34.9904 49.9037 31.0827 49.9037 26.9444C49.9037 25.8042 49.8396 24.6767 49.6987 23.5621C50.6468 22.7933 51.3642 21.9605 51.8767 21.1149C51.8383 20.9356 51.787 20.7562 51.7486 20.5768C51.3002 21.4737 50.5827 22.3321 49.6474 23.1264C48.9812 18.1169 47.0081 13.5815 44.151 9.94282C44.6123 9.6994 45.0479 9.44316 45.4451 9.18691C45.3554 9.09723 45.2657 9.00754 45.176 8.91786C44.7788 9.1741 44.356 9.41753 43.9076 9.64815C39.9487 4.76675 34.337 1.58936 28.0719 1.19219C27.6363 1.16656 27.2007 1.15375 26.7651 1.15375C26.3295 1.15375 25.8938 1.16656 25.4582 1.19219C19.1931 1.58936 13.5814 4.76675 9.62252 9.64815C9.1741 9.41753 8.7513 9.16129 8.35412 8.91786C8.26444 9.00754 8.17475 9.09723 8.08507 9.18691C8.49506 9.44316 8.93067 9.6994 9.37909 9.94282C6.50919 13.5815 4.54894 18.1169 3.88271 23.1264C2.94743 22.3321 2.24277 21.4737 1.78154 20.5768C1.73029 20.7562 1.69185 20.9356 1.65342 21.1149C2.15309 21.9734 2.88337 22.7933 3.83147 23.5621C3.70335 24.6639 3.62647 25.7913 3.62647 26.9444C3.62647 31.0699 4.49769 34.9776 6.06077 38.4497C3.92115 36.6047 2.34527 34.4523 1.51248 32.1333C1.65341 32.8252 1.81997 33.5042 2.01215 34.1704C3.0243 36.0154 4.5105 37.7322 6.43231 39.2696C10.1606 46.8928 17.2457 52.1842 25.4454 52.6967C25.881 52.7223 26.3166 52.7351 26.7523 52.7351C27.1879 52.7351 27.6235 52.7223 28.0591 52.6967C36.2972 52.1842 43.3695 46.8928 47.0978 39.2696ZM16.541 28.2897C14.1196 27.8413 11.8903 27.2263 9.93001 26.496C9.99407 20.9356 11.2497 15.7979 13.338 11.6596C14.8498 12.1721 16.4642 12.5949 18.1682 12.9152C17.1048 17.0535 16.5282 21.8965 16.5282 26.9701C16.5282 27.4057 16.541 27.8413 16.541 28.2897ZM16.5538 28.6741C16.7076 34.5932 17.6429 40.128 19.2444 44.4841C17.2713 44.087 15.4008 43.5489 13.6583 42.8826C11.3265 38.5265 9.93001 32.9917 9.93001 26.9701C9.93001 26.9444 9.93001 26.9188 9.93001 26.8932C11.9287 27.6235 14.1708 28.2256 16.5538 28.6741ZM13.5046 11.3137C16.1567 6.2017 20.09 2.65276 24.5614 1.76873C22.6396 2.81932 20.8843 5.21517 19.4878 8.78974C19.0266 9.95564 18.6166 11.2112 18.2707 12.5437C16.5667 12.2234 14.978 11.8134 13.5046 11.3137ZM22.3321 2.03778C19.4237 3.19087 16.746 5.48423 14.568 8.76412C14.0555 9.53284 13.5814 10.3528 13.133 11.1984C11.9927 10.8012 10.9165 10.34 9.95563 9.85314C13.1843 5.90703 17.4763 3.114 22.3321 2.03778ZM9.72502 10.135C9.90439 10.2247 10.0966 10.3272 10.2887 10.4169C11.1343 10.8269 12.0312 11.1856 12.9665 11.5187C10.8269 15.7851 9.63533 20.9228 9.55846 26.3423C7.41884 25.5095 5.61234 24.523 4.22864 23.4211C4.86924 18.3732 6.82949 13.7864 9.72502 10.135ZM4.01083 26.9572C4.01083 25.9067 4.07489 24.8689 4.17739 23.8567C5.33048 24.7408 6.77824 25.5735 8.48224 26.3038C8.82817 26.4576 9.18691 26.5985 9.54564 26.7394C9.54564 26.8163 9.54564 26.8932 9.54564 26.9572C9.54564 32.7099 10.8012 38.1806 13.0946 42.652C10.6859 41.6655 8.53349 40.4355 6.72699 39.0134C4.99736 35.426 4.01083 31.3134 4.01083 26.9572ZM7.13698 39.7949C7.4829 40.0512 7.82883 40.2946 8.20038 40.538C9.77626 41.5758 11.5187 42.4599 13.3893 43.1901C13.7608 43.882 14.158 44.5354 14.5808 45.176C16.7588 48.4559 19.4238 50.7493 22.3449 51.9023C15.862 50.4546 10.3784 45.9447 7.13698 39.7949ZM13.9402 43.3951C15.6698 44.0357 17.5019 44.5354 19.4109 44.8941C19.4366 44.971 19.475 45.0479 19.5006 45.1248C20.9099 48.6993 22.6524 51.108 24.5742 52.1458C20.3206 51.313 16.5795 48.0843 13.9402 43.3951ZM26.6241 52.3636C23.972 52.2611 21.5762 49.4552 19.8209 44.971C22.0118 45.3682 24.2923 45.5732 26.6241 45.5732V52.3636ZM26.6241 45.2016C24.2155 45.1888 21.8837 44.971 19.6672 44.5482C18.1041 40.3843 17.1048 34.8495 16.9382 28.7253C19.9747 29.2634 23.2546 29.5581 26.6241 29.5581V45.2016ZM26.6241 29.1994C23.1905 29.1865 19.9106 28.8919 16.9254 28.3538C16.9126 27.8925 16.9126 27.4313 16.9126 26.9572C16.9126 21.794 17.5148 16.9895 18.5397 12.9793C21.0893 13.4405 23.8183 13.6839 26.6241 13.6968V29.1994ZM26.6241 13.3124C23.8183 13.2996 21.1278 13.0562 18.6422 12.6077C20.3975 6.03515 23.3186 1.67904 26.6241 1.55092V13.3124ZM49.5449 26.9572C49.5449 31.3134 48.5584 35.426 46.8159 39.0134C45.0223 40.4483 42.8698 41.6783 40.4483 42.652C42.7545 38.1678 43.9973 32.7099 43.9973 26.9572C43.9973 26.8804 43.9973 26.8163 43.9973 26.7394C44.356 26.5985 44.7148 26.4576 45.0607 26.3038C46.7647 25.5607 48.2125 24.7408 49.3655 23.8567C49.4809 24.8689 49.5449 25.9067 49.5449 26.9572ZM35.3748 12.9024C37.0788 12.5821 38.7059 12.1593 40.2049 11.6468C42.2805 15.7851 43.5489 20.9228 43.6129 26.4832C41.6527 27.2135 39.4234 27.8285 37.0019 28.2769C37.0147 27.8413 37.0147 27.3929 37.0147 26.9444C37.0275 21.8965 36.451 17.0535 35.3748 12.9024ZM43.6257 26.8804C43.6257 26.906 43.6257 26.9316 43.6257 26.9572C43.6257 32.9789 42.2292 38.5137 39.8974 42.8698C38.155 43.5361 36.2844 44.087 34.3114 44.4713C35.9129 40.1152 36.8482 34.5804 37.0019 28.6613C39.3849 28.2256 41.6142 27.6235 43.6257 26.8804ZM49.3143 23.4211C47.9306 24.523 46.1241 25.5095 43.9845 26.3423C43.8948 20.9228 42.7033 15.7979 40.5765 11.5187C41.5246 11.1856 42.4214 10.814 43.2542 10.4169C43.4464 10.3272 43.6386 10.2375 43.8179 10.135C46.7134 13.7864 48.6865 18.3732 49.3143 23.4211ZM43.5873 9.84033C42.6136 10.3272 41.5502 10.7884 40.4099 11.1856C39.9743 10.34 39.4874 9.52003 38.975 8.7513C36.7969 5.47142 34.1192 3.17806 31.2109 2.02497C36.0666 3.114 40.3715 5.90703 43.5873 9.84033ZM40.0384 11.3137C38.565 11.8134 36.9763 12.2234 35.2851 12.5437C34.9263 11.2112 34.5164 9.95564 34.0679 8.78974C32.6586 5.21517 30.9034 2.80651 28.9944 1.76873C33.4658 2.65276 37.3863 6.2017 40.0384 11.3137ZM26.9957 1.55092C30.2884 1.73029 33.1839 6.07358 34.9264 12.6077C32.4536 13.0562 29.7887 13.2996 26.9957 13.3124V1.55092ZM26.9957 13.6968C29.7759 13.6839 32.4792 13.4405 35.016 12.9793C36.0538 16.9895 36.6432 21.794 36.6432 26.9572C36.6432 27.4313 36.6432 27.8925 36.6304 28.3538C33.658 28.8919 30.4037 29.1865 26.9957 29.1994V13.6968ZM26.9957 29.5709C30.3524 29.5581 33.6067 29.2762 36.6304 28.7381C36.4638 34.8623 35.4516 40.3971 33.9014 44.561C31.7105 44.971 29.3915 45.1888 27.0085 45.2016V29.5709H26.9957ZM26.9957 45.586C29.3019 45.5732 31.5568 45.3682 33.7348 44.9838C31.9924 49.4168 29.6222 52.2226 26.9957 52.3636V45.586ZM34.0679 45.1248C34.0936 45.0479 34.132 44.971 34.1576 44.8941C36.0666 44.5354 37.8859 44.0229 39.6156 43.3951C36.9763 48.0843 33.2223 51.313 28.9816 52.1586C30.9034 51.108 32.6586 48.6993 34.0679 45.1248ZM31.2109 51.8895C34.1192 50.7364 36.7969 48.4431 38.975 45.1632C39.3978 44.5226 39.7949 43.8692 40.1665 43.1773C42.037 42.447 43.7795 41.563 45.3554 40.5252C45.7269 40.2818 46.0728 40.0384 46.4188 39.7821C43.1773 45.9447 37.6809 50.4546 31.2109 51.8895Z" fill="white"/>
<path opacity="0.3" d="M49.0709 21.5762C49.0709 11.3522 39.0903 3.06274 26.7779 3.06274C14.4655 3.06274 4.48488 11.3522 4.48488 21.5762C4.48488 31.8002 14.4655 40.0896 26.7779 40.0896C39.0903 40.0896 49.0709 31.8002 49.0709 21.5762Z" fill="white"/>
<g opacity="0.4">
<path d="M33.8886 24.0617C33.8886 24.0617 34.4011 24.1898 35.8873 22.8702C37.3735 21.5506 37.0916 21.3584 38.7187 20.7434C40.3459 20.1284 41.4861 21.1278 43.1261 22.2424C43.1261 22.2424 43.5489 22.2808 44.7276 22.1655C44.7276 22.1655 43.3439 22.7421 40.5893 24.5486C39.5899 25.202 39.1287 26.7266 38.834 27.38C38.2191 28.7125 35.3876 33.2864 32.5689 35.6695C32.3896 35.8232 32.1205 35.7079 32.0821 35.4773C31.8643 33.8886 31.198 29.1481 30.7881 28.6228C30.3012 27.9822 27.2904 27.995 25.3685 28.2513C23.3186 28.5203 21.5249 28.7637 20.5384 28.9559C19.5134 29.1481 14.3758 30.0962 9.9172 32.3127C9.9172 32.3127 13.1971 29.4812 19.0266 27.8797C19.7184 27.6875 23.293 27.0597 23.8055 26.5345C24.318 26.0092 21.3199 25.9963 21.3199 25.9963C21.3199 25.9963 11.4803 25.7401 6.40669 23.4852C6.40669 23.4852 18.0016 25.2661 24.1642 24.2923C30.3268 23.3186 34.2986 22.9086 35.426 22.5755C35.4132 22.5755 35.2851 23.1521 33.8886 24.0617Z" fill="#121833"/>
<path d="M35.7463 21.6146C35.7463 21.6146 33.1327 18.386 29.9553 17.0023C26.7779 15.6186 21.2559 14.5039 19.6031 12.9665C19.6031 12.9665 20.1797 14.2221 22.6268 15.4648C24.5101 16.4257 26.4063 17.6557 28.5844 20.9996C28.9944 21.6274 29.3787 22.7293 29.7759 22.7549C30.3268 22.7933 35.3235 22.1655 35.3235 22.1655C35.3235 22.1655 35.9898 22.0374 35.7463 21.6146Z" fill="#121833"/>
<path d="M30.929 31.2493C30.929 31.2493 31.1468 33.4914 31.3005 34.4779C31.4799 35.6438 31.5183 36.3741 31.0059 36.6816C30.1731 37.1685 25.6376 39.2824 21.384 39.3081C21.384 39.3081 24.2539 37.6938 25.7529 36.5022C27.7644 34.9135 29.9681 31.5952 30.2756 31.134C30.5062 30.8009 30.9034 30.8393 30.929 31.2493Z" fill="#121833"/>
</g>
<path d="M80.8832 24.6383V40.7687H76.9499V31.0955L73.3369 40.7687H70.1723L66.5465 31.0699V40.7687H62.6132V24.6383H67.2512L71.7738 35.8104L76.2581 24.6383H80.8832Z" fill="#528C40"/>
<path d="M83.5609 30.8649C84.0606 29.8656 84.7397 29.1097 85.5981 28.5715C86.4565 28.0334 87.4174 27.7644 88.468 27.7644C89.3776 27.7644 90.1592 27.9438 90.851 28.3153C91.53 28.6869 92.0553 29.1609 92.4269 29.7631V27.9438H96.3602V40.7686H92.4269V38.9493C92.0425 39.5515 91.5172 40.0255 90.8254 40.3971C90.1463 40.7686 89.352 40.948 88.4423 40.948C87.4046 40.948 86.4565 40.679 85.5981 40.128C84.7397 39.5899 84.0606 38.8084 83.5609 37.8091C83.0613 36.8097 82.8178 35.6438 82.8178 34.3242C82.8178 33.0173 83.0613 31.8643 83.5609 30.8649ZM91.6069 32.0436C91.0688 31.4799 90.4026 31.198 89.621 31.198C88.8395 31.198 88.1733 31.4799 87.6352 32.0308C87.0971 32.5945 86.8152 33.3633 86.8152 34.337C86.8152 35.3235 87.0843 36.0922 87.6352 36.6688C88.1733 37.2453 88.8395 37.5272 89.621 37.5272C90.4026 37.5272 91.0688 37.2453 91.6069 36.6816C92.145 36.1179 92.4269 35.3363 92.4269 34.3626C92.4141 33.3761 92.145 32.6074 91.6069 32.0436Z" fill="#528C40"/>
<path d="M105.995 37.4375V40.7686H103.996C102.574 40.7686 101.459 40.4227 100.665 39.7181C99.8707 39.0262 99.4735 37.8859 99.4735 36.3101V31.2109H97.9105V27.9438H99.4735V24.8176H103.407V27.9438H105.982V31.2109H103.407V36.3613C103.407 36.7457 103.497 37.0147 103.689 37.1941C103.868 37.3606 104.176 37.4503 104.611 37.4503H105.995V37.4375Z" fill="#528C40"/>
<path d="M107.737 30.8649C108.237 29.8656 108.916 29.1097 109.774 28.5715C110.633 28.0334 111.594 27.7644 112.644 27.7644C113.554 27.7644 114.336 27.9438 115.027 28.3153C115.706 28.6869 116.232 29.1609 116.603 29.7631V27.9438H120.537V40.7686H116.603V38.9493C116.219 39.5515 115.694 40.0255 115.002 40.3971C114.323 40.7686 113.528 40.948 112.619 40.948C111.581 40.948 110.633 40.679 109.774 40.128C108.916 39.5899 108.237 38.8084 107.737 37.8091C107.238 36.8097 106.994 35.6438 106.994 34.3242C106.981 33.0173 107.238 31.8643 107.737 30.8649ZM115.77 32.0436C115.232 31.4799 114.566 31.198 113.785 31.198C113.003 31.198 112.337 31.4799 111.799 32.0308C111.261 32.5945 110.979 33.3633 110.979 34.337C110.979 35.3235 111.248 36.0922 111.799 36.6688C112.337 37.2453 113.003 37.5272 113.785 37.5272C114.566 37.5272 115.232 37.2453 115.77 36.6816C116.309 36.1179 116.59 35.3363 116.59 34.3626C116.59 33.3761 116.321 32.6074 115.77 32.0436Z" fill="#528C40"/>
<path d="M142.24 24.6383L136.513 40.7687H131.593L125.866 24.6383H130.043L134.04 36.8225L138.063 24.6383H142.24Z" fill="#528C40"/>
<path d="M143.855 26.0091C143.419 25.5992 143.201 25.0995 143.201 24.5101C143.201 23.8951 143.419 23.3827 143.855 22.9855C144.29 22.5755 144.854 22.3705 145.546 22.3705C146.225 22.3705 146.776 22.5755 147.211 22.9855C147.647 23.3955 147.865 23.8951 147.865 24.5101C147.865 25.1123 147.647 25.612 147.211 26.0091C146.776 26.4191 146.225 26.6241 145.546 26.6241C144.854 26.6113 144.303 26.4191 143.855 26.0091ZM147.506 27.9438V40.7686H143.573V27.9438H147.506Z" fill="#528C40"/>
<path d="M155.59 37.0916L158.371 27.9438H162.547L157.999 40.7686H153.156L148.608 27.9438H152.81L155.59 37.0916Z" fill="#528C40"/>
<path d="M163.201 30.8649C163.7 29.8656 164.379 29.1097 165.238 28.5715C166.096 28.0334 167.057 27.7644 168.108 27.7644C169.017 27.7644 169.799 27.9438 170.491 28.3153C171.17 28.6869 171.695 29.1609 172.067 29.7631V27.9438H176V40.7686H172.067V38.9493C171.682 39.5515 171.157 40.0255 170.465 40.3971C169.786 40.7686 168.992 40.948 168.082 40.948C167.044 40.948 166.096 40.679 165.238 40.128C164.379 39.5899 163.7 38.8084 163.201 37.8091C162.701 36.8097 162.458 35.6438 162.458 34.3242C162.458 33.0173 162.701 31.8643 163.201 30.8649ZM171.247 32.0436C170.709 31.4799 170.042 31.198 169.261 31.198C168.479 31.198 167.813 31.4799 167.275 32.0308C166.737 32.5945 166.455 33.3633 166.455 34.337C166.455 35.3235 166.724 36.0922 167.275 36.6688C167.813 37.2453 168.479 37.5272 169.261 37.5272C170.042 37.5272 170.709 37.2453 171.247 36.6816C171.785 36.1179 172.067 35.3363 172.067 34.3626C172.054 33.3761 171.785 32.6074 171.247 32.0436Z" fill="#528C40"/>
<path d="M67.0974 18.2835H64.4581L64.0097 19.5775H62.9335L65.2012 13.2484H66.4056L68.6733 19.5775H67.5843L67.0974 18.2835ZM66.8027 17.4379L65.7778 14.5039L64.74 17.4379H66.8027Z" fill="#58595B"/>
<path d="M70.9282 19.4238C70.5951 19.27 70.3261 19.065 70.1339 18.796C69.9417 18.5269 69.8392 18.2066 69.8392 17.8479H70.9539C70.9795 18.117 71.082 18.3476 71.2742 18.5141C71.4663 18.6935 71.7354 18.7832 72.0813 18.7832C72.4401 18.7832 72.7219 18.6935 72.9141 18.5269C73.1191 18.3604 73.2088 18.1298 73.2088 17.8607C73.2088 17.6429 73.1447 17.4764 73.0166 17.3482C72.8885 17.2201 72.7347 17.1176 72.5554 17.0407C72.376 16.9639 72.1198 16.887 71.7866 16.8101C71.3767 16.6948 71.0435 16.5923 70.7873 16.477C70.5311 16.3617 70.3133 16.1951 70.1339 15.9517C69.9545 15.7211 69.8648 15.4008 69.8648 15.0036C69.8648 14.6449 69.9545 14.3246 70.1339 14.0555C70.3133 13.7865 70.5695 13.5687 70.9026 13.4277C71.2357 13.2868 71.6073 13.2099 72.0429 13.2099C72.6579 13.2099 73.1575 13.3637 73.5419 13.6712C73.9263 13.9787 74.1441 14.4015 74.1953 14.9267H73.055C73.0422 14.6961 72.9269 14.504 72.7219 14.3374C72.5169 14.1708 72.2607 14.094 71.9276 14.094C71.6329 14.094 71.3895 14.1708 71.1973 14.3246C71.0051 14.4783 70.9154 14.6961 70.9154 14.978C70.9154 15.1702 70.9795 15.3367 71.0948 15.452C71.2101 15.5802 71.3638 15.6698 71.5432 15.7467C71.7226 15.8236 71.9788 15.9005 72.2863 15.9773C72.7091 16.0926 73.0422 16.208 73.3113 16.3233C73.5803 16.4386 73.7981 16.6179 73.9775 16.8486C74.1569 17.092 74.2594 17.4123 74.2594 17.8095C74.2594 18.1298 74.1697 18.4373 74.0031 18.7191C73.8366 19.001 73.5803 19.2316 73.2472 19.411C72.9141 19.5775 72.5297 19.6672 72.0813 19.6672C71.6457 19.6416 71.2614 19.5647 70.9282 19.4238Z" fill="#58595B"/>
<path d="M76.7705 19.4238C76.4374 19.27 76.1684 19.065 75.9762 18.796C75.784 18.5269 75.6815 18.2066 75.6815 17.8479H76.7962C76.8218 18.117 76.9243 18.3476 77.1165 18.5141C77.3086 18.6935 77.5777 18.7832 77.9236 18.7832C78.2824 18.7832 78.5642 18.6935 78.7564 18.5269C78.9614 18.3604 79.0511 18.1298 79.0511 17.8607C79.0511 17.6429 78.987 17.4764 78.8589 17.3482C78.7308 17.2201 78.577 17.1176 78.3977 17.0407C78.2183 16.9639 77.9621 16.887 77.6289 16.8101C77.219 16.6948 76.8858 16.5923 76.6296 16.477C76.3734 16.3617 76.1556 16.1951 75.9762 15.9517C75.7968 15.7211 75.7071 15.4008 75.7071 15.0036C75.7071 14.6449 75.7968 14.3246 75.9762 14.0555C76.1556 13.7865 76.4118 13.5687 76.7449 13.4277C77.078 13.2868 77.4496 13.2099 77.8852 13.2099C78.5002 13.2099 78.9998 13.3637 79.3842 13.6712C79.7686 13.9787 79.9864 14.4015 80.0376 14.9267H78.8845C78.8717 14.6961 78.7564 14.504 78.5514 14.3374C78.3464 14.1708 78.0902 14.094 77.7571 14.094C77.4624 14.094 77.219 14.1708 77.0268 14.3246C76.8346 14.4783 76.7449 14.6961 76.7449 14.978C76.7449 15.1702 76.809 15.3367 76.9243 15.452C77.0396 15.5802 77.1933 15.6698 77.3727 15.7467C77.5521 15.8236 77.8083 15.9005 78.1158 15.9773C78.5386 16.0926 78.8717 16.208 79.1408 16.3233C79.4098 16.4386 79.6276 16.6179 79.807 16.8486C79.9864 17.092 80.0889 17.4123 80.0889 17.8095C80.0889 18.1298 79.9992 18.4373 79.8326 18.7191C79.6661 19.001 79.4098 19.2316 79.0767 19.411C78.7436 19.5775 78.3592 19.6672 77.9108 19.6672C77.5008 19.6416 77.1165 19.5647 76.7705 19.4238Z" fill="#58595B"/>
<path d="M82.946 19.2316C82.4463 18.9497 82.0619 18.5654 81.78 18.0785C81.4982 17.5788 81.3444 17.0279 81.3444 16.4129C81.3444 15.798 81.4854 15.247 81.78 14.7474C82.0619 14.2605 82.4591 13.8761 82.946 13.5943C83.4456 13.3124 83.9837 13.1843 84.5731 13.1843C85.1624 13.1843 85.7134 13.3252 86.2002 13.5943C86.6999 13.8761 87.0842 14.2477 87.3661 14.7474C87.648 15.2342 87.7889 15.798 87.7889 16.4129C87.7889 17.0279 87.648 17.5916 87.3661 18.0785C87.0842 18.5782 86.6871 18.9625 86.2002 19.2316C85.7005 19.5135 85.1624 19.6416 84.5731 19.6416C83.9837 19.6416 83.4456 19.5006 82.946 19.2316ZM85.6877 18.4629C86.0208 18.2707 86.2771 18.0016 86.4565 17.6429C86.6358 17.2842 86.7383 16.8742 86.7383 16.4129C86.7383 15.9517 86.6486 15.5417 86.4565 15.183C86.2771 14.837 86.0208 14.568 85.6877 14.3758C85.3546 14.1836 84.9831 14.0939 84.5731 14.0939C84.1631 14.0939 83.7787 14.1836 83.4584 14.3758C83.1253 14.568 82.8691 14.837 82.6897 15.183C82.5103 15.5289 82.4078 15.9389 82.4078 16.4129C82.4078 16.8742 82.4975 17.2842 82.6897 17.6429C82.8691 18.0016 83.1253 18.2707 83.4584 18.4629C83.7915 18.655 84.1631 18.7447 84.5731 18.7447C84.9831 18.7447 85.3674 18.6422 85.6877 18.4629Z" fill="#58595B"/>
<path d="M89.2623 14.7474C89.5442 14.2605 89.9413 13.8761 90.4282 13.5943C90.9279 13.3124 91.466 13.1843 92.0553 13.1843C92.7216 13.1843 93.3237 13.3509 93.849 13.684C94.3743 14.0171 94.7587 14.4783 94.9893 15.0933H93.7465C93.58 14.7602 93.3622 14.5167 93.0675 14.3502C92.7728 14.1836 92.4397 14.1068 92.0553 14.1068C91.6325 14.1068 91.261 14.1964 90.9407 14.3886C90.6076 14.5808 90.3513 14.8499 90.172 15.1958C89.9926 15.5417 89.8901 15.9517 89.8901 16.4257C89.8901 16.887 89.9798 17.297 90.172 17.6557C90.3513 18.0016 90.6076 18.2835 90.9407 18.4629C91.2738 18.655 91.6453 18.7447 92.0553 18.7447C92.4397 18.7447 92.7728 18.6679 93.0675 18.5013C93.3622 18.3347 93.58 18.0913 93.7465 17.7582H94.9893C94.7587 18.3604 94.3743 18.8344 93.849 19.1547C93.3237 19.4878 92.7216 19.6416 92.0553 19.6416C91.466 19.6416 90.9151 19.5006 90.4282 19.2316C89.9413 18.9497 89.5442 18.5782 89.2623 18.0785C88.9804 17.5916 88.8267 17.0279 88.8267 16.4129C88.8267 15.798 88.9804 15.2342 89.2623 14.7474Z" fill="#58595B"/>
<path d="M97.603 13.2612V19.5775H96.5652V13.2612H97.603Z" fill="#58595B"/>
<path d="M103.138 18.2835H100.498L100.05 19.5775H98.9738L101.242 13.2484H102.446L104.714 19.5775H103.625L103.138 18.2835ZM102.843 17.4379L101.818 14.5039L100.78 17.4379H102.843Z" fill="#58595B"/>
<path d="M109.915 18.4885C110.21 18.3219 110.428 18.0785 110.594 17.7454H111.837C111.619 18.3091 111.273 18.7447 110.825 19.065C110.364 19.3853 109.826 19.5775 109.224 19.6288V20.0131C109.569 20.0131 109.864 20.09 110.082 20.2694C110.3 20.4359 110.415 20.6665 110.415 20.974C110.415 21.2815 110.3 21.5121 110.082 21.6915C109.864 21.8709 109.582 21.9606 109.249 21.9606H108.045V21.3071H109.031C109.198 21.3071 109.326 21.2815 109.416 21.2303C109.505 21.179 109.544 21.0893 109.544 20.9612C109.544 20.8331 109.505 20.7434 109.416 20.6922C109.326 20.6409 109.198 20.6153 109.031 20.6153H108.532V19.6031C107.994 19.5519 107.519 19.3853 107.084 19.0907C106.648 18.8088 106.302 18.4244 106.059 17.9632C105.803 17.4891 105.687 16.9767 105.687 16.4001C105.687 15.7851 105.828 15.2342 106.123 14.7345C106.405 14.2477 106.802 13.8633 107.289 13.5815C107.789 13.2996 108.327 13.1715 108.916 13.1715C109.582 13.1715 110.184 13.338 110.71 13.6711C111.235 14.0043 111.619 14.4655 111.85 15.0805H110.607C110.441 14.7474 110.223 14.5039 109.928 14.3374C109.633 14.1708 109.3 14.0939 108.916 14.0939C108.493 14.0939 108.122 14.1836 107.801 14.3758C107.468 14.568 107.212 14.837 107.033 15.183C106.853 15.5289 106.751 15.9389 106.751 16.4129C106.751 16.8742 106.84 17.2842 107.033 17.6429C107.212 17.9888 107.468 18.2707 107.801 18.45C108.134 18.6422 108.506 18.7319 108.916 18.7319C109.288 18.7319 109.621 18.655 109.915 18.4885Z" fill="#58595B"/>
<path d="M117.218 18.2835H114.579L114.131 19.5775H113.054L115.322 13.2484H116.526L118.794 19.5775H117.705L117.218 18.2835ZM114.771 11.9415C114.95 11.7622 115.181 11.6725 115.45 11.6725C115.565 11.6725 115.668 11.6853 115.745 11.7237C115.822 11.7622 115.937 11.8134 116.052 11.8903C116.142 11.9543 116.219 11.9928 116.283 12.0312C116.347 12.0568 116.424 12.0825 116.501 12.0825C116.603 12.0825 116.693 12.0568 116.757 11.9928C116.821 11.9287 116.872 11.839 116.885 11.7109H117.462C117.41 12.0568 117.295 12.3259 117.116 12.5053C116.936 12.6846 116.706 12.7743 116.437 12.7743C116.321 12.7743 116.219 12.7487 116.129 12.7102C116.04 12.6718 115.937 12.6206 115.835 12.5437C115.719 12.4796 115.642 12.4284 115.578 12.4028C115.514 12.3771 115.45 12.3643 115.386 12.3643C115.284 12.3643 115.194 12.4028 115.13 12.4668C115.066 12.5309 115.015 12.6334 115.002 12.7615H114.425C114.476 12.3899 114.592 12.1209 114.771 11.9415ZM116.936 17.4379L115.911 14.5039L114.874 17.4379H116.936Z" fill="#58595B"/>
<path d="M121.369 19.2316C120.87 18.9497 120.485 18.5654 120.203 18.0785C119.922 17.5788 119.768 17.0279 119.768 16.4129C119.768 15.798 119.909 15.247 120.203 14.7474C120.485 14.2605 120.882 13.8761 121.369 13.5943C121.869 13.3124 122.407 13.1843 122.996 13.1843C123.586 13.1843 124.137 13.3252 124.624 13.5943C125.123 13.8761 125.508 14.2477 125.789 14.7474C126.071 15.2342 126.212 15.798 126.212 16.4129C126.212 17.0279 126.071 17.5916 125.789 18.0785C125.508 18.5782 125.11 18.9625 124.624 19.2316C124.124 19.5135 123.586 19.6416 122.996 19.6416C122.407 19.6416 121.869 19.5006 121.369 19.2316ZM124.111 18.4629C124.444 18.2707 124.7 18.0016 124.88 17.6429C125.059 17.2842 125.162 16.8742 125.162 16.4129C125.162 15.9517 125.072 15.5417 124.88 15.183C124.7 14.837 124.444 14.568 124.111 14.3758C123.778 14.1836 123.406 14.0939 122.996 14.0939C122.586 14.0939 122.202 14.1836 121.882 14.3758C121.549 14.568 121.292 14.837 121.113 15.183C120.934 15.5289 120.831 15.9389 120.831 16.4129C120.831 16.8742 120.921 17.2842 121.113 17.6429C121.292 18.0016 121.549 18.2707 121.882 18.4629C122.215 18.655 122.586 18.7447 122.996 18.7447C123.406 18.7447 123.778 18.6422 124.111 18.4629Z" fill="#58595B"/>
<path d="M33.8886 23.2161C33.8886 23.2161 34.4011 23.3442 35.8873 22.0245C37.3735 20.7049 37.0916 20.5127 38.7187 19.8977C40.3459 19.2828 41.4861 20.2821 43.1261 21.3968C43.1261 21.3968 43.5489 21.4352 44.7276 21.3199C44.7276 21.3199 43.3439 21.8964 40.5893 23.7029C39.5899 24.3563 39.1287 25.881 38.834 26.5344C38.2191 27.8668 35.3876 32.4407 32.5689 34.8238C32.3896 34.9775 32.1205 34.8622 32.0821 34.6316C31.8643 33.0429 31.198 28.3025 30.7881 27.7772C30.3012 27.1366 27.2904 27.1494 25.3685 27.4056C23.3186 27.6747 21.5249 27.9181 20.5384 28.1103C19.5134 28.3025 14.3758 29.2506 9.9172 31.467C9.9172 31.467 13.1971 28.6356 19.0266 27.0341C19.7184 26.8419 23.293 26.2141 23.8055 25.6888C24.318 25.1635 21.3199 25.1507 21.3199 25.1507C21.3199 25.1507 11.4803 24.8944 6.40669 22.6395C6.40669 22.6395 18.0016 24.4204 24.1642 23.4467C30.3268 22.473 34.2986 22.063 35.426 21.7299C35.4132 21.7299 35.2851 22.2936 33.8886 23.2161Z" fill="#121833"/>
<path d="M35.7463 20.769C35.7463 20.769 33.1327 17.5403 29.9553 16.1566C26.7779 14.7729 21.2559 13.6583 19.6031 12.1208C19.6031 12.1208 20.1797 13.3764 22.6268 14.6192C24.5101 15.5801 26.4063 16.8101 28.5844 20.154C28.9944 20.7818 29.3787 21.8836 29.7759 21.9093C30.3268 21.9477 35.3235 21.3199 35.3235 21.3199C35.3235 21.3199 35.9898 21.1918 35.7463 20.769Z" fill="#121833"/>
<path d="M30.929 30.4036C30.929 30.4036 31.1468 32.6458 31.3005 33.6323C31.4799 34.7982 31.5183 35.5285 31.0059 35.836C30.1731 36.3228 25.6376 38.4368 21.384 38.4624C21.384 38.4624 24.2539 36.8481 25.7529 35.6566C27.7644 34.0679 29.9681 30.7496 30.2756 30.2883C30.5062 29.9424 30.9034 29.9808 30.929 30.4036Z" fill="#121833"/>
<path d="M26.8676 1.89684C30.2371 1.89684 33.5042 2.56307 36.5919 3.85709C39.5643 5.11267 42.242 6.91918 44.5354 9.21253C46.8288 11.5059 48.6353 14.1708 49.8908 17.156C51.1977 20.2309 51.8511 23.498 51.8511 26.8804C51.8511 30.2628 51.1849 33.517 49.8908 36.6047C48.6353 39.5771 46.8288 42.2549 44.5354 44.5482C42.242 46.8416 39.5771 48.6481 36.5919 49.9037C33.517 51.2105 30.2499 51.8639 26.8676 51.8639C23.4852 51.8639 20.2309 51.1977 17.1432 49.9037C14.1708 48.6481 11.4931 46.8416 9.19972 44.5482C6.90636 42.2549 5.09986 39.5899 3.84428 36.6047C2.53745 33.5298 1.88403 30.2628 1.88403 26.8804C1.88403 23.498 2.55026 20.2437 3.84428 17.156C5.09986 14.1836 6.90636 11.5059 9.19972 9.21253C11.4931 6.91918 14.158 5.11267 17.1432 3.85709C20.2309 2.55026 23.498 1.89684 26.8676 1.89684ZM26.8676 1C12.5821 1 1 12.5821 1 26.8676C1 41.153 12.5821 52.7351 26.8676 52.7351C41.153 52.7351 52.7351 41.153 52.7351 26.8676C52.7351 12.5821 41.153 1 26.8676 1Z" fill="#242F66"/>
<defs>
<radialGradient id="paint0_radial_2_165" cx="0" cy="0" r="1" gradientUnits="userSpaceOnUse" gradientTransform="translate(22.393 17.4819) scale(30.1523 30.1524)">
<stop offset="0.005618" stop-color="#5885CC"/>
<stop offset="0.7978" stop-color="#5D91CC"/>
<stop offset="1" stop-color="#364799"/>
</radialGradient>
</defs>
</svg>
